<svg width="516" height="494" viewBox="0 0 516 494" fill="none" xmlns="http://www.w3.org/2000/svg">
<g filter="url(#filter0_d_75_218)">
<rect x="4" width="508" height="486" rx="5" fill="#FA5252"/>
</g>
<path d="M200.908 357.36C200.908 359.067 200.495 360.52 199.668 361.72C198.841 362.893 197.655 363.8 196.108 364.44C194.588 365.08 192.788 365.4 190.708 365.4C189.641 365.4 188.615 365.347 187.628 365.24C186.668 365.133 185.788 364.987 184.988 364.8C184.188 364.587 183.481 364.333 182.868 364.04V360.6C183.828 361.027 185.015 361.413 186.428 361.76C187.868 362.107 189.348 362.28 190.868 362.28C192.281 362.28 193.468 362.093 194.428 361.72C195.388 361.347 196.108 360.813 196.588 360.12C197.068 359.427 197.308 358.613 197.308 357.68C197.308 356.747 197.108 355.96 196.708 355.32C196.308 354.68 195.615 354.093 194.628 353.56C193.668 353 192.321 352.413 190.588 351.8C189.361 351.347 188.281 350.867 187.348 350.36C186.441 349.827 185.681 349.227 185.068 348.56C184.455 347.893 183.988 347.133 183.668 346.28C183.375 345.427 183.228 344.44 183.228 343.32C183.228 341.8 183.615 340.507 184.388 339.44C185.161 338.347 186.228 337.507 187.588 336.92C188.975 336.333 190.561 336.04 192.348 336.04C193.921 336.04 195.361 336.187 196.668 336.48C197.975 336.773 199.161 337.16 200.228 337.64L199.108 340.72C198.121 340.293 197.041 339.933 195.868 339.64C194.721 339.347 193.521 339.2 192.268 339.2C191.068 339.2 190.068 339.373 189.268 339.72C188.468 340.067 187.868 340.56 187.468 341.2C187.068 341.813 186.868 342.533 186.868 343.36C186.868 344.32 187.068 345.12 187.468 345.76C187.868 346.4 188.521 346.973 189.428 347.48C190.335 347.987 191.561 348.533 193.108 349.12C194.788 349.733 196.201 350.4 197.348 351.12C198.521 351.813 199.401 352.653 199.988 353.64C200.601 354.627 200.908 355.867 200.908 357.36ZM231.581 350.68C231.581 352.893 231.301 354.907 230.741 356.72C230.181 358.507 229.341 360.053 228.221 361.36C227.128 362.667 225.755 363.667 224.101 364.36C222.475 365.053 220.581 365.4 218.421 365.4C216.181 365.4 214.235 365.053 212.581 364.36C210.928 363.64 209.555 362.64 208.461 361.36C207.368 360.053 206.555 358.493 206.021 356.68C205.488 354.867 205.221 352.853 205.221 350.64C205.221 347.707 205.701 345.147 206.661 342.96C207.621 340.773 209.075 339.067 211.021 337.84C212.995 336.613 215.475 336 218.461 336C221.315 336 223.715 336.613 225.661 337.84C227.608 339.04 229.075 340.747 230.061 342.96C231.075 345.147 231.581 347.72 231.581 350.68ZM209.021 350.68C209.021 353.08 209.355 355.147 210.021 356.88C210.688 358.613 211.715 359.947 213.101 360.88C214.515 361.813 216.288 362.28 218.421 362.28C220.581 362.28 222.341 361.813 223.701 360.88C225.088 359.947 226.115 358.613 226.781 356.88C227.448 355.147 227.781 353.08 227.781 350.68C227.781 347.08 227.035 344.267 225.541 342.24C224.048 340.187 221.688 339.16 218.461 339.16C216.301 339.16 214.515 339.627 213.101 340.56C211.715 341.467 210.688 342.787 210.021 344.52C209.355 346.227 209.021 348.28 209.021 350.68ZM245.791 336.44C248.165 336.44 250.111 336.747 251.631 337.36C253.178 337.947 254.325 338.84 255.071 340.04C255.818 341.24 256.191 342.747 256.191 344.56C256.191 346.08 255.911 347.347 255.351 348.36C254.791 349.373 254.071 350.187 253.191 350.8C252.338 351.387 251.431 351.853 250.471 352.2L258.311 365H254.111L247.191 353.2H241.511V365H237.911V336.44H245.791ZM245.591 339.56H241.511V350.16H245.791C247.338 350.16 248.605 349.96 249.591 349.56C250.578 349.133 251.298 348.52 251.751 347.72C252.231 346.92 252.471 345.92 252.471 344.72C252.471 343.467 252.218 342.467 251.711 341.72C251.231 340.973 250.485 340.427 249.471 340.08C248.458 339.733 247.165 339.56 245.591 339.56ZM271.834 365H268.234V339.6H259.314V336.44H280.714V339.6H271.834V365ZM300.981 365H285.021V336.44H300.981V339.6H288.621V348.52H300.261V351.64H288.621V361.84H300.981V365ZM315.287 365H304.967V362.92L308.327 362.16V339.32L304.967 338.52V336.44H315.287V338.52L311.927 339.32V362.16L315.287 362.92V365ZM345.722 350.68C345.722 352.893 345.442 354.907 344.882 356.72C344.322 358.507 343.482 360.053 342.362 361.36C341.269 362.667 339.895 363.667 338.242 364.36C336.615 365.053 334.722 365.4 332.562 365.4C330.322 365.4 328.375 365.053 326.722 364.36C325.069 363.64 323.695 362.64 322.602 361.36C321.509 360.053 320.695 358.493 320.162 356.68C319.629 354.867 319.362 352.853 319.362 350.64C319.362 347.707 319.842 345.147 320.802 342.96C321.762 340.773 323.215 339.067 325.162 337.84C327.135 336.613 329.615 336 332.602 336C335.455 336 337.855 336.613 339.802 337.84C341.749 339.04 343.215 340.747 344.202 342.96C345.215 345.147 345.722 347.72 345.722 350.68ZM323.162 350.68C323.162 353.08 323.495 355.147 324.162 356.88C324.829 358.613 325.855 359.947 327.242 360.88C328.655 361.813 330.429 362.28 332.562 362.28C334.722 362.28 336.482 361.813 337.842 360.88C339.229 359.947 340.255 358.613 340.922 356.88C341.589 355.147 341.922 353.08 341.922 350.68C341.922 347.08 341.175 344.267 339.682 342.24C338.189 340.187 335.829 339.16 332.602 339.16C330.442 339.16 328.655 339.627 327.242 340.56C325.855 341.467 324.829 342.787 324.162 344.52C323.495 346.227 323.162 348.28 323.162 350.68ZM175.745 386.44C179.478 386.44 182.198 387.173 183.905 388.64C185.611 390.107 186.465 392.173 186.465 394.84C186.465 396.013 186.265 397.147 185.865 398.24C185.491 399.307 184.865 400.267 183.985 401.12C183.105 401.973 181.931 402.653 180.465 403.16C178.998 403.64 177.198 403.88 175.065 403.88H171.785V415H168.185V386.44H175.745ZM175.425 389.52H171.785V400.8H174.665C176.478 400.8 177.985 400.613 179.185 400.24C180.385 399.84 181.278 399.213 181.865 398.36C182.451 397.507 182.745 396.387 182.745 395C182.745 393.16 182.158 391.787 180.985 390.88C179.811 389.973 177.958 389.52 175.425 389.52ZM217.323 400.68C217.323 402.893 217.043 404.907 216.483 406.72C215.923 408.507 215.083 410.053 213.963 411.36C212.87 412.667 211.497 413.667 209.843 414.36C208.217 415.053 206.323 415.4 204.163 415.4C201.923 415.4 199.977 415.053 198.323 414.36C196.67 413.64 195.297 412.64 194.203 411.36C193.11 410.053 192.297 408.493 191.763 406.68C191.23 404.867 190.963 402.853 190.963 400.64C190.963 397.707 191.443 395.147 192.403 392.96C193.363 390.773 194.817 389.067 196.763 387.84C198.737 386.613 201.217 386 204.203 386C207.057 386 209.457 386.613 211.403 387.84C213.35 389.04 214.817 390.747 215.803 392.96C216.817 395.147 217.323 397.72 217.323 400.68ZM194.763 400.68C194.763 403.08 195.097 405.147 195.763 406.88C196.43 408.613 197.457 409.947 198.843 410.88C200.257 411.813 202.03 412.28 204.163 412.28C206.323 412.28 208.083 411.813 209.443 410.88C210.83 409.947 211.857 408.613 212.523 406.88C213.19 405.147 213.523 403.08 213.523 400.68C213.523 397.08 212.777 394.267 211.283 392.24C209.79 390.187 207.43 389.16 204.203 389.16C202.043 389.16 200.257 389.627 198.843 390.56C197.457 391.467 196.43 392.787 195.763 394.52C195.097 396.227 194.763 398.28 194.763 400.68ZM244.533 415H240.293L230.173 401.36L227.253 403.92V415H223.653V386.44H227.253V400.52C228.053 399.613 228.867 398.707 229.693 397.8C230.52 396.893 231.347 395.987 232.173 395.08L239.893 386.44H244.093L232.773 398.88L244.533 415ZM264.379 415H248.419V386.44H264.379V389.6H252.019V398.52H263.659V401.64H252.019V411.84H264.379V415ZM283.246 415L273.846 389.96H273.686C273.739 390.493 273.779 391.173 273.806 392C273.859 392.827 273.899 393.733 273.926 394.72C273.952 395.68 273.966 396.667 273.966 397.68V415H270.646V386.44H275.966L284.766 409.84H284.926L293.886 386.44H299.166V415H295.606V397.44C295.606 396.507 295.619 395.587 295.646 394.68C295.672 393.747 295.712 392.88 295.766 392.08C295.819 391.253 295.859 390.56 295.886 390H295.726L286.206 415H283.246ZM331.855 400.68C331.855 402.893 331.575 404.907 331.015 406.72C330.455 408.507 329.615 410.053 328.495 411.36C327.401 412.667 326.028 413.667 324.375 414.36C322.748 415.053 320.855 415.4 318.695 415.4C316.455 415.4 314.508 415.053 312.855 414.36C311.201 413.64 309.828 412.64 308.735 411.36C307.641 410.053 306.828 408.493 306.295 406.68C305.761 404.867 305.495 402.853 305.495 400.64C305.495 397.707 305.975 395.147 306.935 392.96C307.895 390.773 309.348 389.067 311.295 387.84C313.268 386.613 315.748 386 318.735 386C321.588 386 323.988 386.613 325.935 387.84C327.881 389.04 329.348 390.747 330.335 392.96C331.348 395.147 331.855 397.72 331.855 400.68ZM309.295 400.68C309.295 403.08 309.628 405.147 310.295 406.88C310.961 408.613 311.988 409.947 313.375 410.88C314.788 411.813 316.561 412.28 318.695 412.28C320.855 412.28 322.615 411.813 323.975 410.88C325.361 409.947 326.388 408.613 327.055 406.88C327.721 405.147 328.055 403.08 328.055 400.68C328.055 397.08 327.308 394.267 325.815 392.24C324.321 390.187 321.961 389.16 318.735 389.16C316.575 389.16 314.788 389.627 313.375 390.56C311.988 391.467 310.961 392.787 310.295 394.52C309.628 396.227 309.295 398.28 309.295 400.68ZM360.825 415H356.625L341.345 391.28H341.185C341.211 391.76 341.238 392.293 341.265 392.88C341.318 393.467 341.358 394.107 341.385 394.8C341.411 395.467 341.438 396.16 341.465 396.88C341.491 397.6 341.505 398.32 341.505 399.04V415H338.185V386.44H342.345L357.585 410.08H357.745C357.718 409.76 357.691 409.32 357.665 408.76C357.638 408.173 357.611 407.533 357.585 406.84C357.558 406.12 357.531 405.387 357.505 404.64C357.478 403.893 357.465 403.2 357.465 402.56V386.44H360.825V415Z" fill="white"/>
<path d="M180.952 85C166.642 85 155 96.6422 155 110.952V277.048C155 291.358 166.642 303 180.952 303H347.048C361.358 303 373 291.358 373 277.048V110.952C373 96.6422 361.358 85 347.048 85H180.952ZM246.705 131.714C250.167 131.714 257.72 136.941 264 136.905C270.28 136.941 277.833 131.714 281.295 131.714C290.684 131.771 295.21 136.796 295.143 147.286C295.117 150.201 293.185 154.965 290.5 160.201L264 186.701L237.5 160.201C234.815 154.965 232.883 150.201 232.857 147.286C232.79 136.796 237.31 131.771 246.705 131.714ZM217.286 162.857C220.201 162.883 224.965 164.815 230.201 167.5L256.701 194L230.201 220.5C224.965 223.185 220.201 225.117 217.286 225.143C206.796 225.21 201.771 220.69 201.714 211.295C201.714 207.833 206.946 200.28 206.905 194C206.941 187.72 201.714 180.162 201.714 176.705C201.771 167.316 206.796 162.79 217.286 162.857ZM310.714 162.857C321.204 162.79 326.229 167.31 326.286 176.705C326.286 180.167 321.059 187.72 321.095 194C321.059 200.28 326.286 207.838 326.286 211.295C326.229 220.684 321.204 225.21 310.714 225.143C307.799 225.117 303.035 223.185 297.799 220.5L271.299 194L297.799 167.5C303.035 164.815 307.799 162.883 310.714 162.857ZM264 201.299L290.5 227.799C293.185 233.035 295.117 237.799 295.143 240.714C295.21 251.204 290.69 256.229 281.295 256.286C277.833 256.286 270.28 251.059 264 251.095C257.72 251.059 250.162 256.286 246.705 256.286C237.316 256.229 232.79 251.204 232.857 240.714C232.883 237.799 234.815 233.035 237.5 227.799L264 201.299Z" fill="white"/>
<defs>
<filter id="filter0_d_75_218" x="0" y="0" width="516" height="494" filterUnits="userSpaceOnUse" color-interpolation-filters="sRGB">
<feFlood flood-opacity="0" result="BackgroundImageFix"/>
<feColorMatrix in="SourceAlpha" type="matrix" values="0 0 0 0 0 0 0 0 0 0 0 0 0 0 0 0 0 0 127 0" result="hardAlpha"/>
<feOffset dy="4"/>
<feGaussianBlur stdDeviation="2"/>
<feComposite in2="hardAlpha" operator="out"/>
<feColorMatrix type="matrix" values="0 0 0 0 0 0 0 0 0 0 0 0 0 0 0 0 0 0 0.25 0"/>
<feBlend mode="normal" in2="BackgroundImageFix" result="effect1_dropShadow_75_218"/>
<feBlend mode="normal" in="SourceGraphic" in2="effect1_dropShadow_75_218" result="shape"/>
</filter>
</defs>
</svg>
