<svg width="350" height="113" viewBox="0 0 350 113" fill="none" xmlns="http://www.w3.org/2000/svg">
<g filter="url(#filter0_d_75_200)">
<rect x="4" width="342" height="105" rx="5" fill="#FA5252"/>
</g>
<path d="M135.534 59.753C135.534 60.4783 135.358 61.096 135.007 61.606C134.656 62.1047 134.151 62.49 133.494 62.762C132.848 63.034 132.083 63.17 131.199 63.17C130.746 63.17 130.309 63.1473 129.89 63.102C129.482 63.0567 129.108 62.9943 128.768 62.915C128.428 62.8243 128.128 62.7167 127.867 62.592V61.13C128.275 61.3113 128.779 61.4757 129.38 61.623C129.992 61.7703 130.621 61.844 131.267 61.844C131.868 61.844 132.372 61.7647 132.78 61.606C133.188 61.4473 133.494 61.2207 133.698 60.926C133.902 60.6313 134.004 60.2857 134.004 59.889C134.004 59.4923 133.919 59.158 133.749 58.886C133.579 58.614 133.284 58.3647 132.865 58.138C132.457 57.9 131.885 57.6507 131.148 57.39C130.627 57.1973 130.168 56.9933 129.771 56.778C129.386 56.5513 129.063 56.2963 128.802 56.013C128.541 55.7297 128.343 55.4067 128.207 55.044C128.082 54.6813 128.02 54.262 128.02 53.786C128.02 53.14 128.184 52.5903 128.513 52.137C128.842 51.6723 129.295 51.3153 129.873 51.066C130.462 50.8167 131.137 50.692 131.896 50.692C132.565 50.692 133.177 50.7543 133.732 50.879C134.287 51.0037 134.792 51.168 135.245 51.372L134.769 52.681C134.35 52.4997 133.891 52.3467 133.392 52.222C132.905 52.0973 132.395 52.035 131.862 52.035C131.352 52.035 130.927 52.1087 130.587 52.256C130.247 52.4033 129.992 52.613 129.822 52.885C129.652 53.1457 129.567 53.4517 129.567 53.803C129.567 54.211 129.652 54.551 129.822 54.823C129.992 55.095 130.27 55.3387 130.655 55.554C131.04 55.7693 131.562 56.0017 132.219 56.251C132.933 56.5117 133.534 56.795 134.021 57.101C134.52 57.3957 134.894 57.7527 135.143 58.172C135.404 58.5913 135.534 59.1183 135.534 59.753ZM148.57 56.914C148.57 57.8547 148.451 58.7103 148.213 59.481C147.975 60.2403 147.618 60.8977 147.142 61.453C146.677 62.0083 146.094 62.4333 145.391 62.728C144.7 63.0227 143.895 63.17 142.977 63.17C142.025 63.17 141.198 63.0227 140.495 62.728C139.792 62.422 139.209 61.997 138.744 61.453C138.279 60.8977 137.934 60.2347 137.707 59.464C137.48 58.6933 137.367 57.8377 137.367 56.897C137.367 55.6503 137.571 54.5623 137.979 53.633C138.387 52.7037 139.005 51.9783 139.832 51.457C140.671 50.9357 141.725 50.675 142.994 50.675C144.207 50.675 145.227 50.9357 146.054 51.457C146.881 51.967 147.505 52.6923 147.924 53.633C148.355 54.5623 148.57 55.656 148.57 56.914ZM138.982 56.914C138.982 57.934 139.124 58.8123 139.407 59.549C139.69 60.2857 140.127 60.8523 140.716 61.249C141.317 61.6457 142.07 61.844 142.977 61.844C143.895 61.844 144.643 61.6457 145.221 61.249C145.81 60.8523 146.247 60.2857 146.53 59.549C146.813 58.8123 146.955 57.934 146.955 56.914C146.955 55.384 146.638 54.1883 146.003 53.327C145.368 52.4543 144.365 52.018 142.994 52.018C142.076 52.018 141.317 52.2163 140.716 52.613C140.127 52.9983 139.69 53.5593 139.407 54.296C139.124 55.0213 138.982 55.894 138.982 56.914ZM154.609 50.862C155.618 50.862 156.445 50.9923 157.091 51.253C157.749 51.5023 158.236 51.882 158.553 52.392C158.871 52.902 159.029 53.5423 159.029 54.313C159.029 54.959 158.91 55.4973 158.672 55.928C158.434 56.3587 158.128 56.7043 157.754 56.965C157.392 57.2143 157.006 57.4127 156.598 57.56L159.93 63H158.145L155.204 57.985H152.79V63H151.26V50.862H154.609ZM154.524 52.188H152.79V56.693H154.609C155.267 56.693 155.805 56.608 156.224 56.438C156.644 56.2567 156.95 55.996 157.142 55.656C157.346 55.316 157.448 54.891 157.448 54.381C157.448 53.8483 157.341 53.4233 157.125 53.106C156.921 52.7887 156.604 52.5563 156.173 52.409C155.743 52.2617 155.193 52.188 154.524 52.188ZM165.678 63H164.148V52.205H160.357V50.862H169.452V52.205H165.678V63ZM178.065 63H171.282V50.862H178.065V52.205H172.812V55.996H177.759V57.322H172.812V61.657H178.065V63ZM188.344 63L186.882 59.243H182.071L180.626 63H179.079L183.822 50.811H185.199L189.925 63H188.344ZM185.063 54.211C185.029 54.1203 184.972 53.956 184.893 53.718C184.814 53.48 184.734 53.2363 184.655 52.987C184.587 52.7263 184.53 52.528 184.485 52.392C184.428 52.6187 184.366 52.851 184.298 53.089C184.241 53.3157 184.179 53.5253 184.111 53.718C184.054 53.9107 184.003 54.075 183.958 54.211L182.581 57.883H186.423L185.063 54.211ZM194.935 50.862C195.943 50.862 196.771 50.9923 197.417 51.253C198.074 51.5023 198.561 51.882 198.879 52.392C199.196 52.902 199.355 53.5423 199.355 54.313C199.355 54.959 199.236 55.4973 198.998 55.928C198.76 56.3587 198.454 56.7043 198.08 56.965C197.717 57.2143 197.332 57.4127 196.924 57.56L200.256 63H198.471L195.53 57.985H193.116V63H191.586V50.862H194.935ZM194.85 52.188H193.116V56.693H194.935C195.592 56.693 196.13 56.608 196.55 56.438C196.969 56.2567 197.275 55.996 197.468 55.656C197.672 55.316 197.774 54.891 197.774 54.381C197.774 53.8483 197.666 53.4233 197.451 53.106C197.247 52.7887 196.929 52.5563 196.499 52.409C196.068 52.2617 195.518 52.188 194.85 52.188ZM208.81 50.862C210.397 50.862 211.553 51.1737 212.278 51.797C213.004 52.4203 213.366 53.2987 213.366 54.432C213.366 54.9307 213.281 55.4123 213.111 55.877C212.953 56.3303 212.686 56.7383 212.312 57.101C211.938 57.4637 211.44 57.7527 210.816 57.968C210.193 58.172 209.428 58.274 208.521 58.274H207.127V63H205.597V50.862H208.81ZM208.674 52.171H207.127V56.965H208.351C209.122 56.965 209.762 56.8857 210.272 56.727C210.782 56.557 211.162 56.2907 211.411 55.928C211.661 55.5653 211.785 55.0893 211.785 54.5C211.785 53.718 211.536 53.1343 211.037 52.749C210.539 52.3637 209.751 52.171 208.674 52.171ZM226.481 56.914C226.481 57.8547 226.362 58.7103 226.124 59.481C225.886 60.2403 225.529 60.8977 225.053 61.453C224.589 62.0083 224.005 62.4333 223.302 62.728C222.611 63.0227 221.806 63.17 220.888 63.17C219.936 63.17 219.109 63.0227 218.406 62.728C217.704 62.422 217.12 61.997 216.655 61.453C216.191 60.8977 215.845 60.2347 215.618 59.464C215.392 58.6933 215.278 57.8377 215.278 56.897C215.278 55.6503 215.482 54.5623 215.89 53.633C216.298 52.7037 216.916 51.9783 217.743 51.457C218.582 50.9357 219.636 50.675 220.905 50.675C222.118 50.675 223.138 50.9357 223.965 51.457C224.793 51.967 225.416 52.6923 225.835 53.633C226.266 54.5623 226.481 55.656 226.481 56.914ZM216.893 56.914C216.893 57.934 217.035 58.8123 217.318 59.549C217.602 60.2857 218.038 60.8523 218.627 61.249C219.228 61.6457 219.982 61.844 220.888 61.844C221.806 61.844 222.554 61.6457 223.132 61.249C223.722 60.8523 224.158 60.2857 224.441 59.549C224.725 58.8123 224.866 57.934 224.866 56.914C224.866 55.384 224.549 54.1883 223.914 53.327C223.28 52.4543 222.277 52.018 220.905 52.018C219.987 52.018 219.228 52.2163 218.627 52.613C218.038 52.9983 217.602 53.5593 217.318 54.296C217.035 55.0213 216.893 55.894 216.893 56.914ZM238.045 63H236.243L231.942 57.203L230.701 58.291V63H229.171V50.862H230.701V56.846C231.041 56.4607 231.387 56.0753 231.738 55.69C232.09 55.3047 232.441 54.9193 232.792 54.534L236.073 50.862H237.858L233.047 56.149L238.045 63ZM246.48 63H239.697V50.862H246.48V52.205H241.227V55.996H246.174V57.322H241.227V61.657H246.48V63ZM254.498 63L250.503 52.358H250.435C250.458 52.5847 250.475 52.8737 250.486 53.225C250.509 53.5763 250.526 53.9617 250.537 54.381C250.548 54.789 250.554 55.2083 250.554 55.639V63H249.143V50.862H251.404L255.144 60.807H255.212L259.02 50.862H261.264V63H259.751V55.537C259.751 55.1403 259.757 54.7493 259.768 54.364C259.779 53.9673 259.796 53.599 259.819 53.259C259.842 52.9077 259.859 52.613 259.87 52.375H259.802L255.756 63H254.498ZM275.157 56.914C275.157 57.8547 275.038 58.7103 274.8 59.481C274.562 60.2403 274.205 60.8977 273.729 61.453C273.264 62.0083 272.681 62.4333 271.978 62.728C271.287 63.0227 270.482 63.17 269.564 63.17C268.612 63.17 267.785 63.0227 267.082 62.728C266.379 62.422 265.796 61.997 265.331 61.453C264.866 60.8977 264.521 60.2347 264.294 59.464C264.067 58.6933 263.954 57.8377 263.954 56.897C263.954 55.6503 264.158 54.5623 264.566 53.633C264.974 52.7037 265.592 51.9783 266.419 51.457C267.258 50.9357 268.312 50.675 269.581 50.675C270.794 50.675 271.814 50.9357 272.641 51.457C273.468 51.967 274.092 52.6923 274.511 53.633C274.942 54.5623 275.157 55.656 275.157 56.914ZM265.569 56.914C265.569 57.934 265.711 58.8123 265.994 59.549C266.277 60.2857 266.714 60.8523 267.303 61.249C267.904 61.6457 268.657 61.844 269.564 61.844C270.482 61.844 271.23 61.6457 271.808 61.249C272.397 60.8523 272.834 60.2857 273.117 59.549C273.4 58.8123 273.542 57.934 273.542 56.914C273.542 55.384 273.225 54.1883 272.59 53.327C271.955 52.4543 270.952 52.018 269.581 52.018C268.663 52.018 267.904 52.2163 267.303 52.613C266.714 52.9983 266.277 53.5593 265.994 54.296C265.711 55.0213 265.569 55.894 265.569 56.914ZM287.469 63H285.684L279.19 52.919H279.122C279.134 53.123 279.145 53.3497 279.156 53.599C279.179 53.8483 279.196 54.1203 279.207 54.415C279.219 54.6983 279.23 54.993 279.241 55.299C279.253 55.605 279.258 55.911 279.258 56.217V63H277.847V50.862H279.615L286.092 60.909H286.16C286.149 60.773 286.138 60.586 286.126 60.348C286.115 60.0987 286.104 59.8267 286.092 59.532C286.081 59.226 286.07 58.9143 286.058 58.597C286.047 58.2797 286.041 57.985 286.041 57.713V50.862H287.469V63Z" fill="white"/>
<path d="M56.9048 24C53.0975 24 50 27.0975 50 30.9048V75.0952C50 78.9025 53.0975 82 56.9048 82H101.095C104.903 82 108 78.9025 108 75.0952V30.9048C108 27.0975 104.903 24 101.095 24H56.9048ZM74.3986 36.4286C75.3197 36.4286 77.329 37.8192 79 37.8095C80.671 37.8192 82.6803 36.4286 83.6014 36.4286C86.0995 36.4438 87.3037 37.7805 87.2857 40.5714C87.2787 41.347 86.7649 42.6146 86.0504 44.0076L79 51.058L71.9496 44.0076C71.2351 42.6146 70.7213 41.347 70.7143 40.5714C70.6963 37.7805 71.8991 36.4438 74.3986 36.4286ZM66.5714 44.7143C67.347 44.7213 68.6146 45.2351 70.0076 45.9496L77.058 53L70.0076 60.0504C68.6146 60.7649 67.347 61.2787 66.5714 61.2857C63.7805 61.3037 62.4438 60.1009 62.4286 57.6014C62.4286 56.6803 63.8206 54.671 63.8095 53C63.8192 51.329 62.4286 49.3183 62.4286 48.3986C62.4438 45.9005 63.7805 44.6963 66.5714 44.7143ZM91.4286 44.7143C94.2195 44.6963 95.5562 45.8991 95.5714 48.3986C95.5714 49.3197 94.1808 51.329 94.1905 53C94.1808 54.671 95.5714 56.6817 95.5714 57.6014C95.5562 60.0995 94.2195 61.3037 91.4286 61.2857C90.653 61.2787 89.3854 60.7649 87.9924 60.0504L80.942 53L87.9924 45.9496C89.3854 45.2351 90.653 44.7213 91.4286 44.7143ZM79 54.942L86.0504 61.9924C86.7649 63.3854 87.2787 64.653 87.2857 65.4286C87.3037 68.2195 86.1009 69.5562 83.6014 69.5714C82.6803 69.5714 80.671 68.1808 79 68.1905C77.329 68.1808 75.3183 69.5714 74.3986 69.5714C71.9005 69.5562 70.6963 68.2195 70.7143 65.4286C70.7213 64.653 71.2351 63.3854 71.9496 61.9924L79 54.942Z" fill="white"/>
<defs>
<filter id="filter0_d_75_200" x="0" y="0" width="350" height="113" filterUnits="userSpaceOnUse" color-interpolation-filters="sRGB">
<feFlood flood-opacity="0" result="BackgroundImageFix"/>
<feColorMatrix in="SourceAlpha" type="matrix" values="0 0 0 0 0 0 0 0 0 0 0 0 0 0 0 0 0 0 127 0" result="hardAlpha"/>
<feOffset dy="4"/>
<feGaussianBlur stdDeviation="2"/>
<feComposite in2="hardAlpha" operator="out"/>
<feColorMatrix type="matrix" values="0 0 0 0 0 0 0 0 0 0 0 0 0 0 0 0 0 0 0.25 0"/>
<feBlend mode="normal" in2="BackgroundImageFix" result="effect1_dropShadow_75_200"/>
<feBlend mode="normal" in="SourceGraphic" in2="effect1_dropShadow_75_200" result="shape"/>
</filter>
</defs>
</svg>
