<svg width="39" height="32" viewBox="0 0 39 32" fill="none" xmlns="http://www.w3.org/2000/svg">
<path d="M35.75 25.6C37.5448 25.6 39 27.0328 39 28.8C39 30.5672 37.5448 32 35.75 32C34.7734 32 4.22663 32 3.25 32C1.45519 32 0 30.5672 0 28.8C0 27.0328 1.45519 25.6 3.25 25.6C4.22663 25.6 34.7734 25.6 35.75 25.6ZM35.75 12.8C37.5448 12.8 39 14.2328 39 16C39 17.7672 37.5448 19.2 35.75 19.2C34.7734 19.2 4.22663 19.2 3.25 19.2C1.45519 19.2 0 17.7672 0 16C0 14.2328 1.45519 12.8 3.25 12.8C4.22663 12.8 34.7734 12.8 35.75 12.8ZM35.75 0C37.5448 0 39 1.4328 39 3.2C39 4.9672 37.5448 6.4 35.75 6.4C34.7734 6.4 4.22663 6.4 3.25 6.4C1.45519 6.4 0 4.9672 0 3.2C0 1.4328 1.45519 0 3.25 0C4.22663 0 34.7734 0 35.75 0Z" fill="#FA5252"/>
</svg>
